P2
# CREATOR: GIMP PNM Filter Version 1.1
16 15
255
82
85
85
85
84
87
94
88
84
87
92
94
93
89
89
85
83
85
84
79
82
85
144
190
182
120
87
88
86
89
91
85
71
88
90
88
86
139
159
164
175
186
139
84
86
88
83
82
83
82
87
100
136
153
157
153
134
165
188
117
83
89
88
87
80
80
82
91
174
150
151
143
181
147
168
168
74
87
90
88
83
81
81
119
149
133
147
151
178
170
185
182
109
92
88
85
83
84
74
124
141
140
150
153
176
163
182
185
113
104
113
122
76
84
89
110
106
131
130
142
136
144
174
181
118
85
83
84
88
91
90
104
109
119
138
145
159
170
153
156
106
80
83
77
72
74
77
89
99
96
112
110
152
161
153
158
89
75
76
79
105
84
65
69
76
87
115
121
136
137
147
122
74
76
80
80
98
97
87
81
66
60
92
101
102
108
116
84
80
78
80
77
78
100
105
97
99
75
69
67
85
85
67
69
76
72
68
74
73
77
84
94
103
97
76
84
73
68
70
65
65
70
76
76
88
83
81
80
86
87
97
99
99
96
87
90
78
74
67
68
