P2
# CREATOR: GIMP PNM Filter Version 1.1
16 15
255
255
255
255
255
254
250
247
238
236
245
250
254
255
255
255
255
255
255
255
248
211
148
105
93
99
114
146
204
243
255
255
255
255
255
241
159
85
80
86
86
82
92
100
106
164
234
255
255
255
249
151
70
78
78
71
84
105
116
110
115
122
152
241
255
253
198
75
71
75
71
85
94
90
106
123
137
135
117
185
255
251
121
62
73
78
79
70
81
107
117
124
134
110
118
135
239
244
65
66
78
72
58
84
108
83
98
100
155
112
119
141
214
232
53
66
59
61
81
87
102
88
72
107
124
162
148
149
201
242
59
54
52
70
74
83
92
96
109
119
144
130
129
129
205
250
95
50
64
63
70
80
88
94
93
102
109
111
117
144
234
252
179
44
52
52
54
59
68
75
85
95
101
114
127
173
255
255
242
118
38
56
56
58
65
75
84
94
101
111
137
236
255
255
255
234
117
43
57
63
64
69
75
83
94
125
227
255
255
255
255
255
247
172
77
54
59
66
75
89
161
243
255
255
255
255
255
255
255
255
254
214
182
178
204
249
255
255
255
255
255
