P2
# CREATOR: GIMP PNM Filter Version 1.1
16 15
255
255
255
255
255
254
248
245
240
239
246
250
253
255
255
255
255
255
255
255
246
203
165
150
161
180
183
187
216
244
255
255
255
255
255
237
154
119
132
149
170
185
187
196
193
192
228
255
255
255
244
148
96
114
126
144
154
167
204
209
195
176
174
234
255
254
200
78
98
107
117
119
108
170
187
190
182
164
137
175
254
248
137
77
91
97
101
83
131
142
153
160
154
144
123
150
237
246
94
83
86
90
68
102
112
121
127
129
130
122
115
150
224
245
80
84
85
68
83
91
97
103
106
110
108
87
139
126
215
245
94
84
81
67
83
85
85
87
91
89
69
118
121
114
215
249
137
78
70
79
82
81
80
80
73
66
96
103
104
124
226
253
199
77
74
84
85
83
78
63
69
85
89
92
92
158
250
255
244
138
62
79
80
66
66
79
81
82
85
86
112
227
255
255
255
236
122
77
74
83
83
81
81
81
83
104
215
255
255
255
255
255
249
169
117
93
84
82
88
107
150
235
255
255
255
255
255
255
255
255
242
217
202
201
212
233
255
255
255
255
255
