P2
# CREATOR: GIMP PNM Filter Version 1.1
16 15
255
255
255
255
255
255
255
255
255
255
255
255
255
255
255
255
255
255
255
255
255
255
255
255
255
255
255
255
255
255
255
255
255
255
255
255
255
255
212
177
172
200
249
255
255
255
255
255
255
255
255
255
238
127
80
74
71
72
95
215
255
255
255
255
255
255
255
241
123
64
67
67
65
63
55
70
228
255
255
255
255
255
255
183
70
68
66
75
64
63
61
47
121
255
255
255
255
255
247
147
65
67
98
123
67
60
59
53
57
255
255
255
255
255
245
144
69
69
104
110
65
61
59
53
53
253
255
255
255
255
253
171
73
74
82
90
69
65
60
52
96
255
255
255
255
255
255
219
102
72
72
71
67
64
56
55
189
255
255
255
255
255
255
255
197
93
62
61
60
54
56
123
230
254
255
255
255
255
255
255
255
231
170
111
88
96
134
182
228
254
255
255
255
255
255
255
255
255
255
255
250
247
249
253
255
255
255
255
255
255
255
255
255
255
255
255
255
255
255
255
255
255
255
255
255
255
255
255
255
255
255
255
255
255
255
255
255
255
255
255
255
