P2
# CREATOR: GIMP PNM Filter Version 1.1
16 15
255
255
255
255
255
255
255
255
255
255
255
255
255
255
255
255
255
255
255
255
255
255
255
255
255
254
255
255
255
255
255
255
255
255
255
255
255
255
242
229
225
224
229
244
255
255
255
255
255
255
255
255
255
220
206
208
211
212
213
213
226
255
255
255
255
255
255
255
215
183
199
209
215
219
217
213
205
222
255
255
255
255
255
238
196
204
218
224
228
228
227
223
216
201
237
255
255
255
255
226
188
207
218
222
228
228
228
225
220
206
213
255
255
255
255
221
185
207
217
222
226
228
225
221
219
207
202
255
255
255
255
222
181
201
212
218
222
224
222
218
212
201
204
255
255
255
255
237
187
190
204
212
215
216
216
211
208
184
223
255
255
255
255
255
210
173
189
200
207
206
204
196
171
191
255
255
255
255
255
255
255
201
152
162
164
166
164
145
180
252
255
255
255
255
255
255
255
255
236
196
170
161
170
216
255
255
255
255
255
255
255
255
255
255
255
255
255
255
255
255
255
255
255
255
255
255
255
255
255
255
255
255
255
255
255
255
255
255
255
255
255
