P2
# CREATOR: GIMP PNM Filter Version 1.1
16 15
255
125
128
126
138
134
138
138
137
139
133
131
136
144
155
169
169
127
128
131
125
110
126
124
124
140
146
136
135
160
205
200
156
129
128
142
143
137
211
249
235
166
149
161
168
182
186
201
222
150
150
155
156
205
243
245
243
200
175
158
124
139
154
185
189
135
122
150
205
239
231
227
242
245
250
183
145
144
139
141
147
138
141
162
216
234
55
42
188
249
251
217
130
125
138
135
137
124
139
149
216
178
43
37
147
252
243
233
149
137
143
161
134
94
94
95
180
192
29
40
164
252
175
134
137
149
156
156
155
87
89
77
137
220
177
157
242
228
85
88
147
139
138
130
124
63
87
71
117
196
214
222
229
227
65
126
167
154
151
143
117
59
71
49
99
177
198
208
221
225
230
146
132
155
159
170
179
79
85
79
55
96
65
44
134
222
176
103
113
110
124
137
148
81
76
61
59
38
40
32
35
108
75
89
96
102
107
114
135
86
80
85
88
77
59
55
60
62
79
91
85
100
98
110
123
90
79
87
85
77
77
64
66
81
100
71
80
92
80
93
110
