P2
# CREATOR: GIMP PNM Filter Version 1.1
16 15
255
58
61
64
71
75
78
82
77
79
83
81
85
76
72
73
71
60
61
63
67
74
71
85
78
77
81
74
80
76
77
76
78
62
69
64
69
146
200
201
126
76
91
81
80
80
97
77
80
62
71
88
168
222
234
239
206
143
96
75
75
76
77
78
71
87
74
131
192
212
228
235
222
203
129
75
75
86
72
70
70
65
72
121
158
174
208
225
204
203
174
66
66
70
70
81
67
68
75
85
90
129
161
189
150
175
204
66
78
78
79
71
65
76
48
76
47
93
134
132
114
160
182
87
75
77
79
75
77
54
37
59
67
78
107
77
102
157
157
110
72
80
90
94
84
52
40
42
44
61
32
63
82
108
141
91
83
91
78
81
62
51
53
41
48
55
44
46
56
65
100
72
79
102
69
77
54
49
60
53
59
62
67
52
54
51
73
73
68
75
63
56
53
60
57
54
59
48
51
68
58
51
78
81
81
79
64
63
45
46
79
48
50
54
80
89
51
58
81
80
81
46
71
50
39
44
61
65
57
51
62
61
52
68
78
73
70
58
70
62
49
