P2
# CREATOR: GIMP PNM Filter Version 1.1
16 15
255
0
0
0
0
0
0
6
22
15
2
1
1
0
0
0
0
0
0
0
0
0
22
121
159
104
90
17
0
0
0
0
0
0
0
0
0
27
139
174
186
217
172
119
14
0
0
0
0
0
0
0
2
82
223
233
243
233
194
182
55
3
0
0
0
0
0
0
21
152
220
144
117
128
116
116
125
12
0
1
0
9
8
8
36
171
178
129
164
179
219
222
174
20
7
7
5
60
61
72
83
130
149
104
120
146
102
117
181
77
64
61
69
67
71
73
77
88
131
104
36
37
65
89
133
82
66
69
66
80
80
83
87
84
104
125
43
36
112
94
85
83
74
74
75
86
91
92
88
76
94
104
56
61
83
87
75
82
84
84
82
90
89
89
88
76
84
66
59
81
68
90
65
89
84
86
89
91
97
90
87
72
65
73
58
87
70
54
70
83
85
91
87
92
93
84
74
31
25
78
105
62
33
15
37
71
83
82
86
101
93
93
76
44
11
9
22
11
3
21
47
79
86
92
93
92
98
99
94
78
68
56
48
47
57
77
78
90
88
89
91
