P2
# CREATOR: GIMP PNM Filter Version 1.1
16 15
255
97
99
108
131
155
167
172
172
167
165
165
154
138
121
108
99
94
100
114
137
154
162
166
166
164
169
175
173
163
145
127
118
99
113
125
136
141
148
151
150
151
160
169
174
169
155
139
127
101
123
129
178
235
186
143
143
143
149
158
162
159
150
139
123
89
114
155
215
213
218
168
130
133
135
138
138
139
132
123
107
92
122
175
203
195
193
196
125
132
131
137
142
135
126
114
95
93
126
169
182
175
177
178
134
143
146
155
155
147
152
135
109
104
135
155
153
150
155
163
168
170
172
175
167
159
166
152
123
109
163
165
119
118
130
160
188
185
184
182
180
170
163
146
120
120
167
172
120
96
119
175
173
168
160
160
170
159
153
141
115
133
150
161
173
178
167
165
142
147
152
149
145
147
149
145
112
114
132
140
156
192
160
162
158
160
169
172
167
180
142
127
115
85
106
127
152
191
173
178
163
171
167
165
143
138
107
93
57
63
92
114
139
179
142
142
142
137
132
141
110
87
82
68
59
44
59
66
74
111
87
97
90
98
92
95
96
63
58
64
57
