P2
# CREATOR: GIMP PNM Filter Version 1.1
16 15
255
255
255
255
255
255
253
250
246
245
245
249
255
255
255
255
255
255
255
255
254
243
243
244
244
244
246
235
229
252
255
255
255
255
255
251
232
232
237
240
243
239
238
237
227
215
249
255
255
255
255
227
222
222
218
227
227
222
221
222
219
220
216
255
255
255
246
200
209
205
200
202
208
207
208
210
212
213
198
247
255
255
227
191
192
190
186
179
178
181
186
198
209
210
203
235
255
255
220
176
177
173
165
164
164
166
168
172
201
193
204
234
255
255
225
163
163
158
157
150
143
146
153
161
172
193
209
242
255
255
246
161
156
149
146
141
139
141
148
159
176
200
214
250
255
255
255
201
164
160
156
149
148
156
166
179
193
209
215
241
246
252
245
234
190
182
183
183
180
183
191
201
204
193
191
205
220
245
232
219
202
188
185
187
193
194
189
180
161
148
174
198
215
248
239
227
212
190
172
162
158
152
140
129
132
173
207
226
238
255
251
247
240
231
219
203
187
180
183
194
214
233
241
251
255
255
255
255
255
255
255
254
255
255
255
251
253
251
246
249
249
