P2
# CREATOR: GIMP PNM Filter Version 1.1
16 15
255
134
144
156
159
162
163
160
162
154
128
114
114
116
122
128
120
155
165
171
179
193
194
168
139
149
163
161
167
182
182
174
162
157
162
160
161
164
179
188
173
162
174
193
193
179
178
174
170
146
164
180
171
176
188
183
180
216
217
249
250
213
156
156
152
217
208
199
194
179
179
183
179
104
51
168
216
108
76
154
155
203
187
174
176
175
173
180
200
85
103
215
210
155
48
145
176
216
200
204
222
228
226
213
200
190
186
197
184
153
79
150
210
234
204
205
215
224
221
202
169
188
181
175
160
128
96
152
223
120
121
119
118
119
117
113
84
170
164
102
85
93
60
90
123
83
85
89
86
93
98
96
66
118
109
40
29
45
42
90
100
63
62
55
64
70
67
70
65
85
80
32
23
24
37
45
76
50
57
61
73
70
77
70
81
90
80
83
74
85
79
77
95
45
61
50
59
56
55
55
67
62
56
73
79
83
90
80
92
38
41
46
57
54
55
56
56
64
75
74
68
79
78
80
84
45
41
51
57
45
67
64
64
58
60
57
79
69
81
74
77
