P2
# CREATOR: GIMP PNM Filter Version 1.1
16 15
255
204
203
204
203
204
205
199
195
198
202
203
204
205
205
204
204
200
201
200
199
201
166
90
63
105
137
169
201
200
200
201
200
200
199
198
198
126
67
45
51
57
60
83
201
196
195
196
196
197
196
196
168
109
73
85
111
83
118
122
121
190
193
193
194
193
193
168
55
45
51
74
58
66
62
55
55
67
171
187
188
188
188
70
57
83
46
49
54
59
55
50
58
58
96
185
183
188
144
52
79
97
71
91
104
66
94
68
99
61
114
181
179
185
175
124
58
68
70
101
95
76
75
84
64
61
119
178
176
180
165
82
127
101
82
80
133
74
103
129
83
69
64
162
173
179
176
183
178
169
147
174
127
96
139
168
167
139
66
126
170
175
174
171
173
171
171
156
106
106
155
162
162
159
136
145
166
169
166
164
133
130
116
81
74
110
121
119
138
152
153
158
158
156
151
151
45
33
33
32
29
28
33
48
39
122
140
142
143
109
79
75
37
25
26
25
26
24
24
25
47
83
88
96
103
131
114
104
88
63
56
55
59
61
66
77
118
139
152
161
163
