P2
# CREATOR: GIMP PNM Filter Version 1.1
16 15
255
255
255
255
255
255
255
255
250
243
225
193
193
245
255
255
255
255
255
255
255
255
255
231
194
153
122
101
153
220
255
255
255
255
254
247
248
253
251
191
129
108
84
76
120
144
183
213
241
255
251
199
159
171
174
155
112
77
57
59
62
61
82
144
216
255
255
231
135
103
106
104
82
73
46
73
59
76
80
139
229
245
159
118
96
90
80
80
61
73
73
102
111
124
126
138
203
204
169
91
106
93
81
80
78
124
142
115
104
111
155
190
220
255
224
113
136
106
80
69
86
107
113
150
153
164
172
225
254
255
234
172
127
108
123
119
96
100
127
163
172
184
207
205
251
255
246
151
119
156
167
195
133
85
159
165
199
179
206
247
254
255
253
218
175
194
212
184
112
115
201
173
252
249
249
255
255
255
255
254
250
254
253
222
156
165
254
254
254
255
255
255
255
255
255
255
255
255
255
255
189
175
254
255
255
255
255
255
255
255
255
255
255
255
255
255
191
188
254
255
255
255
255
255
255
255
255
255
255
255
255
255
187
207
254
255
255
255
255
255
255
