P2
# CREATOR: GIMP PNM Filter Version 1.1
24 15
255
136
139
143
145
148
152
154
155
156
158
160
161
162
165
163
154
146
158
154
151
149
146
142
138
143
149
152
154
157
160
163
165
167
170
171
173
173
146
70
59
48
98
163
161
160
156
153
147
152
155
160
164
166
170
172
173
180
106
102
161
76
31
26
65
53
33
61
123
93
124
161
156
161
164
169
173
174
179
181
182
189
75
94
74
87
27
29
65
23
18
25
14
34
38
121
167
169
174
177
181
184
197
179
179
52
38
20
29
73
51
38
34
43
40
38
11
34
21
26
114
177
180
185
186
174
56
33
44
49
54
88
65
66
83
89
69
93
70
58
39
146
51
165
177
182
184
189
170
88
119
46
47
49
57
53
70
60
115
193
138
104
115
71
13
160
171
190
184
185
190
183
163
98
64
57
74
111
57
111
58
156
139
148
112
92
184
163
216
195
198
194
189
187
194
136
58
45
75
40
180
197
186
157
118
184
124
199
212
222
218
215
210
207
201
196
193
188
187
154
77
171
83
210
223
197
180
136
69
168
229
222
222
220
218
216
213
209
204
198
193
184
80
50
61
78
162
136
115
171
206
62
203
225
225
223
222
222
218
215
211
208
205
194
191
146
61
127
115
210
205
210
217
218
187
95
196
191
196
206
210
205
208
213
216
213
211
202
191
149
152
188
187
192
196
202
208
215
125
114
108
98
84
77
97
130
138
136
135
135
78
104
165
66
68
127
139
137
138
142
123
101
104
72
102
83
57
66
79
64
93
83
93
90
88
74
77
55
50
78
112
79
86
77
69
81
86
58
107
93
69
83
91
108
110
82
60
57
43
64
65
