P2
# CREATOR: GIMP PNM Filter Version 1.1
16 15
255
169
175
177
173
175
174
173
167
166
152
146
161
158
149
148
151
173
179
183
183
184
185
150
147
141
100
126
172
164
151
149
150
175
178
184
178
150
166
172
105
125
125
105
157
169
155
151
150
178
171
156
156
132
123
95
111
132
118
85
160
172
157
153
150
178
162
93
112
124
110
104
85
95
85
81
142
172
164
158
156
176
162
69
82
107
101
78
89
92
111
91
118
132
145
165
165
178
165
99
90
88
102
63
48
74
80
66
86
74
113
104
154
182
152
81
102
80
66
78
66
67
91
96
69
76
118
98
129
173
171
94
57
88
83
97
97
93
103
96
76
94
136
95
148
175
151
112
93
88
98
93
88
98
84
74
70
86
93
102
86
116
100
85
78
58
78
72
73
90
79
61
81
95
78
73
57
82
88
81
72
75
101
122
118
121
132
93
100
102
106
112
119
179
176
161
161
155
158
160
160
137
104
149
162
175
169
164
163
153
137
79
69
73
69
73
66
66
73
68
70
85
113
140
146
131
120
109
113
115
119
125
130
132
123
113
104
107
111
114
114
