P2
# CREATOR: GIMP PNM Filter Version 1.1
16 15
255
223
225
222
224
224
226
237
238
205
230
248
248
241
243
232
231
224
227
227
228
229
233
169
121
69
117
188
251
251
248
248
240
222
227
228
231
233
211
51
67
85
97
100
224
248
249
248
246
221
226
230
233
245
180
62
58
61
64
84
79
122
248
248
248
224
227
230
233
246
128
62
85
54
60
36
51
70
201
250
245
227
233
237
241
196
75
66
48
65
54
39
35
40
91
214
245
228
230
233
219
85
98
78
99
87
83
67
15
50
84
98
243
229
231
234
201
33
32
74
87
63
70
67
46
28
58
135
243
229
231
221
219
146
40
67
64
29
48
65
74
69
93
232
241
228
233
114
114
150
48
28
24
37
39
27
58
70
231
238
237
216
227
106
98
228
105
108
114
25
36
47
40
48
234
235
231
110
124
42
72
135
120
140
138
15
33
60
51
38
113
133
120
217
206
196
192
199
203
191
163
27
149
149
137
137
156
156
143
222
222
220
208
192
182
178
169
54
191
200
221
225
226
227
226
192
212
216
215
206
193
194
196
190
202
211
221
226
227
224
221
