P2
# CREATOR: GIMP PNM Filter Version 1.1
16 15
255
29
34
38
38
38
39
40
40
40
40
39
37
36
33
32
28
34
38
40
41
42
43
44
45
48
50
45
41
38
37
36
33
39
42
45
47
49
51
60
70
82
91
79
64
48
43
40
39
45
49
53
56
60
70
92
110
99
95
106
102
66
53
48
45
54
59
63
67
71
91
104
90
73
70
83
91
77
63
59
55
65
70
74
78
86
104
100
63
55
63
60
69
95
75
71
66
77
82
88
93
100
86
80
90
66
37
29
36
99
91
86
82
95
103
107
115
107
77
81
72
88
101
45
32
83
115
106
101
121
127
134
135
116
72
50
55
54
60
64
39
88
129
132
127
148
148
150
156
115
67
55
72
70
41
32
39
89
154
158
153
138
131
144
167
150
92
63
82
60
52
49
67
80
169
185
179
99
65
111
175
214
155
123
143
122
96
116
114
110
155
222
226
69
94
176
224
240
238
234
234
205
126
216
243
239
240
250
248
120
158
162
169
173
157
158
162
124
80
123
158
146
172
200
182
130
148
174
172
156
171
181
168
161
155
111
99
99
116
153
150
