P2
# CREATOR: GIMP PNM Filter Version 1.1
16 15
255
201
203
205
206
205
196
198
172
179
200
207
208
209
206
199
208
207
209
212
205
168
162
197
173
158
196
200
202
172
138
144
184
217
215
218
206
135
110
142
149
195
151
134
151
143
95
105
105
223
223
209
153
141
115
91
100
152
145
109
112
133
98
100
95
211
216
191
165
130
105
119
106
102
125
123
165
184
134
110
122
217
204
174
172
143
106
103
129
105
77
111
76
95
83
79
89
237
224
210
181
129
108
119
73
78
58
16
97
109
98
97
95
221
159
140
137
138
129
118
64
105
95
121
102
97
99
104
101
135
129
111
99
126
158
147
88
79
80
103
186
95
106
109
121
111
120
113
105
99
133
201
125
49
37
37
128
113
100
95
128
125
110
118
143
148
163
181
128
77
49
55
108
135
116
97
106
142
170
150
176
194
201
165
150
110
39
66
97
44
69
76
98
175
151
124
182
214
213
188
205
210
185
184
176
166
200
219
210
169
177
208
218
223
229
226
228
228
231
214
167
112
79
61
83
188
186
191
188
194
192
188
143
132
127
93
71
72
129
72
85
