P2
# CREATOR: GIMP PNM Filter Version 1.1
16 15
255
255
255
255
255
255
255
255
255
255
254
255
255
255
255
255
255
255
255
255
255
255
255
255
241
209
201
239
255
255
255
255
255
255
255
255
255
255
254
207
149
128
136
177
234
255
255
255
255
255
255
255
255
255
241
162
97
89
129
132
169
246
255
255
255
255
255
255
255
232
165
120
99
102
115
118
125
174
236
254
255
255
255
255
230
172
148
135
107
84
115
107
118
117
180
237
253
255
255
255
229
137
117
134
117
93
97
108
101
101
139
201
248
255
255
244
194
171
139
110
102
89
108
104
103
130
156
228
254
255
255
230
155
158
148
114
127
74
120
121
141
206
253
255
255
255
255
252
248
255
237
223
255
142
255
243
229
254
255
255
255
255
255
255
255
255
255
255
255
136
255
255
255
255
255
255
255
255
255
255
255
255
255
255
255
126
255
255
255
255
255
255
255
255
255
255
255
255
255
255
255
128
255
255
255
255
255
255
255
255
255
255
255
255
255
255
255
106
233
255
255
255
255
255
255
255
255
255
255
255
255
255
253
192
229
255
255
255
255
255
255
