P2
# CREATOR: GIMP PNM Filter Version 1.1
16 15
255
206
238
255
252
221
210
245
255
255
255
255
255
255
255
253
255
212
239
255
220
135
101
101
156
253
255
255
255
255
255
242
251
192
175
118
97
94
111
103
82
210
255
255
255
255
253
233
247
174
218
120
90
128
154
93
89
110
233
255
252
253
248
217
205
100
130
102
86
78
112
167
119
71
137
255
237
225
213
186
155
75
115
148
85
67
84
101
121
130
105
245
209
199
186
162
124
86
94
109
109
112
73
106
138
112
131
221
192
172
167
151
104
54
53
58
92
86
69
153
201
158
148
199
172
157
146
113
88
47
42
49
55
64
82
113
177
178
177
180
150
139
130
100
70
59
57
49
40
55
75
100
124
130
115
169
147
125
108
86
68
61
42
34
39
33
54
77
90
105
129
168
133
117
92
71
49
35
38
36
39
44
61
63
73
103
109
105
93
81
72
64
52
30
42
38
55
69
72
78
77
92
85
85
88
68
64
60
56
14
24
25
36
48
51
64
65
80
85
88
92
83
92
97
94
37
55
67
70
78
91
92
104
120
125
137
158
176
183
192
184
