P2
# CREATOR: GIMP PNM Filter Version 1.1
16 15
255
190
191
194
196
197
200
202
205
209
213
217
221
226
231
234
238
196
199
201
203
209
209
208
212
216
220
223
226
230
234
237
242
202
203
208
199
129
89
174
226
221
226
229
231
234
236
243
246
208
211
196
104
66
71
108
197
232
230
232
236
239
245
246
247
213
212
91
59
63
70
74
175
241
237
237
238
243
248
251
250
217
202
68
61
75
71
62
151
231
240
240
241
245
248
249
248
217
216
127
77
66
68
73
147
230
240
240
242
244
246
246
245
211
219
217
207
179
164
226
225
232
234
232
232
244
247
247
247
109
110
107
100
104
103
101
108
114
119
118
117
118
118
120
119
110
112
115
112
112
110
105
104
105
102
102
100
99
95
93
94
96
100
100
98
98
96
98
99
96
96
93
91
91
90
89
85
85
88
89
91
90
94
94
93
93
93
90
90
90
90
89
88
64
68
71
71
76
75
81
85
76
72
72
75
70
69
68
74
64
67
76
73
70
68
75
78
74
69
63
60
62
63
62
60
59
58
59
60
58
60
58
64
72
65
63
63
59
59
63
60
