P2
# CREATOR: GIMP PNM Filter Version 1.1
16 15
255
255
255
255
255
255
252
255
255
253
254
255
255
255
255
255
255
255
255
255
255
242
155
172
158
166
237
196
238
255
255
255
255
255
255
255
255
236
116
112
114
125
125
111
147
239
255
255
255
255
255
253
243
136
111
107
128
83
94
94
103
191
207
255
255
255
252
181
137
159
84
83
79
82
73
123
111
110
156
235
255
255
237
131
80
79
74
90
69
76
70
113
130
87
99
188
254
254
210
87
97
93
64
71
65
84
63
69
70
104
97
191
255
251
158
86
76
93
50
63
68
68
56
104
72
104
126
205
255
254
213
183
155
81
61
73
67
69
52
59
72
97
161
245
255
255
254
192
111
134
84
96
67
81
97
51
100
108
182
255
255
255
251
213
181
189
138
148
129
64
160
180
137
206
220
253
255
255
255
249
252
228
216
91
60
56
154
247
252
252
253
255
255
255
255
255
255
255
246
173
118
137
151
242
255
255
255
255
255
255
255
255
255
255
255
248
162
250
255
255
255
255
255
255
255
174
146
130
137
127
107
109
74
87
128
147
167
171
168
180
198
