P2
# CREATOR: GIMP PNM Filter Version 1.1
16 15
255
147
148
151
156
160
163
166
167
168
168
168
166
165
164
165
166
145
149
138
126
159
174
170
173
173
173
173
171
169
167
166
166
143
121
78
140
164
185
191
167
177
175
175
174
170
167
165
165
133
66
112
103
129
125
139
208
170
174
173
172
168
165
162
161
103
71
111
116
120
159
175
212
180
154
153
152
148
146
144
144
69
74
109
112
132
125
189
227
183
118
116
113
109
101
96
100
57
60
108
125
124
97
196
225
187
131
128
120
106
112
110
108
73
33
94
142
126
130
184
209
155
151
149
134
126
130
130
111
94
24
37
118
162
176
199
127
121
154
152
147
139
138
130
123
110
66
42
78
149
178
147
130
164
150
149
137
137
139
129
128
72
74
69
95
131
159
169
159
146
160
157
139
115
108
129
127
61
59
51
61
95
113
133
147
150
146
141
138
133
129
126
118
105
109
109
119
128
137
140
139
139
137
135
131
127
122
114
99
103
106
110
118
122
126
131
131
131
120
99
89
112
116
108
100
103
106
111
112
117
121
121
122
124
111
86
67
104
106
103
103
