P2
# CREATOR: GIMP PNM Filter Version 1.1
16 15
255
253
253
253
253
253
254
250
248
247
250
253
253
253
253
253
253
253
253
253
255
243
208
168
142
140
158
194
234
255
253
253
253
253
253
255
221
145
96
70
73
75
68
78
114
193
255
253
253
253
255
222
129
104
110
127
131
131
131
114
92
84
182
255
253
253
242
156
130
143
130
137
135
145
143
141
135
124
109
219
255
253
222
131
146
134
91
116
99
112
140
148
146
140
124
176
255
250
198
133
139
138
133
131
145
147
148
149
149
145
132
163
242
251
184
93
94
103
113
110
103
107
119
128
121
105
98
141
237
251
191
120
123
122
127
133
135
137
139
142
140
138
129
164
242
252
220
118
113
67
78
104
112
112
114
115
113
132
126
184
255
253
242
144
100
92
83
104
110
108
113
118
126
126
127
226
255
253
255
218
109
84
98
115
117
118
121
116
103
96
195
255
253
253
253
255
220
122
85
74
85
98
81
85
106
201
255
253
253
253
253
253
255
249
195
152
141
150
146
178
240
255
253
253
253
253
253
253
253
254
255
255
246
243
252
255
254
253
253
253
253
