P2
# CREATOR: GIMP PNM Filter Version 1.1
16 15
255
255
255
255
255
255
255
255
255
255
255
255
255
255
255
255
253
255
255
255
255
255
255
221
219
235
250
255
255
255
255
255
255
255
255
255
255
255
189
199
255
246
210
150
251
255
255
255
255
255
255
255
255
242
244
241
247
253
255
60
109
255
255
255
255
255
255
255
246
242
246
52
22
107
233
232
35
201
255
255
255
255
255
255
179
229
133
26
19
85
218
232
203
211
255
255
255
255
255
244
144
227
179
28
18
86
215
228
214
206
255
255
255
255
255
233
173
233
255
78
93
180
215
226
221
201
255
255
255
255
255
244
210
234
253
249
230
208
214
149
35
188
255
255
255
255
255
255
237
231
241
227
214
207
191
49
22
162
255
255
255
255
255
255
245
193
120
160
208
203
155
38
31
243
255
255
255
255
255
255
255
171
20
23
148
197
162
46
178
255
255
255
255
255
255
255
255
255
107
14
79
186
170
199
253
255
255
255
255
255
255
255
255
255
254
245
214
216
245
255
255
255
255
255
255
255
255
255
255
255
255
255
255
255
255
255
255
255
255
255
255
