P2
# CREATOR: GIMP PNM Filter Version 1.1
16 15
255
255
255
255
255
249
224
189
167
163
179
212
244
255
255
255
255
255
255
252
219
148
93
58
28
20
29
57
115
197
248
255
255
255
254
201
114
58
14
37
78
86
64
14
2
58
171
247
255
255
220
113
45
14
113
214
251
255
237
177
55
0
52
191
253
253
151
52
7
93
255
255
227
216
244
255
193
45
0
102
234
236
105
6
19
196
255
243
226
245
232
253
255
103
0
44
208
218
77
0
26
226
255
225
148
139
156
255
255
127
2
31
192
217
77
4
18
174
255
226
178
221
194
246
255
96
7
59
201
236
98
31
17
66
232
255
211
192
228
255
169
41
26
85
220
252
150
47
20
8
67
165
224
235
205
128
35
12
37
141
241
255
228
96
30
10
1
15
35
40
30
7
3
24
86
212
255
255
254
211
85
30
10
3
0
0
2
7
22
75
195
254
255
255
255
251
208
112
52
29
20
19
25
47
103
190
243
254
255
255
254
250
234
203
152
108
87
85
99
136
188
227
248
254
254
255
255
255
254
246
231
214
199
200
214
230
242
251
254
255
254
