P2
# CREATOR: GIMP PNM Filter Version 1.1
16 15
255
255
255
255
255
254
249
230
221
226
231
247
255
255
255
255
255
255
255
254
246
203
191
235
254
255
252
233
221
237
255
255
255
255
255
233
203
213
242
248
252
255
255
248
196
179
218
255
255
255
235
199
168
190
217
237
244
253
255
254
233
163
146
213
255
254
185
175
97
181
204
219
232
239
250
255
255
228
156
147
243
241
180
82
161
214
196
197
217
221
226
237
248
255
216
143
206
208
134
69
151
169
201
180
180
196
206
214
221
216
233
175
166
188
71
66
79
110
140
136
124
123
133
140
139
128
166
145
137
197
64
64
68
75
80
88
85
75
71
70
65
67
68
72
134
236
65
63
59
60
63
64
62
60
55
51
44
44
39
56
166
254
125
56
54
53
55
53
57
54
49
50
46
45
42
80
237
255
228
68
49
50
53
52
50
49
49
47
48
49
63
172
255
255
254
207
61
46
49
50
48
48
49
49
50
58
155
255
255
255
255
255
229
108
49
50
49
48
51
54
86
196
255
255
255
255
255
255
255
255
228
168
136
132
158
208
255
255
255
255
255
