P2
# CREATOR: GIMP PNM Filter Version 1.1
16 15
255
45
45
45
44
45
44
44
40
41
42
40
39
37
36
36
35
43
43
45
43
42
42
64
110
75
42
41
38
38
37
37
36
43
44
45
42
52
161
212
231
237
126
43
39
38
37
37
36
44
45
45
41
145
194
214
233
248
239
80
39
39
38
38
39
33
41
39
77
167
192
195
228
250
255
157
39
38
37
36
37
30
29
24
102
128
127
133
155
205
253
240
53
39
39
38
37
30
30
35
80
100
156
189
167
165
218
255
76
35
37
38
38
26
26
28
85
142
165
190
208
177
180
249
78
31
34
37
37
22
21
16
83
131
147
169
197
192
174
230
41
31
33
32
34
17
14
10
46
103
125
148
176
190
174
164
33
32
33
33
35
14
10
9
10
71
100
121
147
156
154
69
31
32
31
32
33
13
11
9
7
18
62
85
113
115
72
28
27
28
28
29
30
11
11
10
9
5
11
34
47
32
21
23
25
25
26
25
25
10
11
10
9
8
5
3
6
14
20
22
22
22
22
23
23
8
9
9
10
11
9
9
11
12
14
16
16
17
17
17
18
