P2
# CREATOR: GIMP PNM Filter Version 1.1
16 15
255
255
255
254
255
228
198
179
167
171
176
197
239
255
254
255
255
255
255
249
172
131
122
111
118
25
62
82
86
169
249
255
255
254
252
149
113
107
111
117
55
20
12
19
18
50
138
250
253
254
146
101
101
107
112
122
79
80
61
121
108
95
99
162
255
215
100
97
102
103
114
47
96
90
143
105
106
107
105
108
212
160
92
96
96
104
120
120
116
111
106
124
104
99
124
101
159
88
87
95
99
89
107
109
113
114
102
100
85
109
106
102
132
83
45
90
71
85
109
98
64
33
45
92
92
91
94
40
100
104
50
85
58
29
43
43
73
92
93
88
87
85
88
68
111
170
113
97
95
96
119
102
90
90
85
85
84
86
95
107
169
220
123
106
97
102
101
99
101
89
86
89
90
93
96
113
214
252
158
119
111
105
105
121
27
48
17
96
92
102
116
170
255
254
245
155
146
80
56
48
45
38
100
103
111
122
159
247
254
255
254
244
154
107
58
46
42
114
125
125
135
194
253
255
254
255
255
254
255
224
178
128
115
159
169
188
242
254
254
255
255
