P2
# CREATOR: GIMP PNM Filter Version 1.1
16 15
255
133
135
137
138
138
140
142
143
145
147
147
147
146
145
146
144
134
136
138
139
139
142
142
146
146
146
147
147
152
153
147
155
96
106
112
117
121
130
153
158
160
157
149
146
155
159
163
163
168
147
144
125
106
192
232
225
219
221
224
162
123
129
141
145
212
216
221
228
222
233
238
246
240
232
239
232
158
151
156
148
188
194
191
197
221
207
154
146
226
227
111
120
168
150
160
176
121
126
132
154
85
40
45
49
210
199
92
87
71
107
138
138
137
136
135
59
40
41
44
103
202
199
147
72
71
101
134
124
124
135
130
57
39
38
43
136
169
166
160
77
67
122
161
161
154
160
166
84
41
36
45
135
140
139
139
95
69
154
179
162
170
171
173
146
50
39
85
148
145
145
144
119
99
178
179
182
160
160
141
39
23
40
128
145
142
138
134
109
169
177
187
187
163
165
171
81
9
3
61
69
87
117
122
128
142
180
187
186
169
172
176
183
155
160
150
145
145
147
176
180
182
181
181
181
169
167
177
174
147
123
142
148
152
175
175
166
175
178
169
170
