P2
# CREATOR: GIMP PNM Filter Version 1.1
16 15
255
238
238
236
234
234
233
238
243
243
243
242
244
244
245
245
247
242
235
235
239
232
230
231
238
241
243
243
243
243
246
248
248
244
235
237
236
238
232
231
237
241
244
244
244
243
245
246
247
243
234
233
237
241
243
233
217
214
214
220
236
240
238
241
242
241
241
242
243
243
213
157
131
134
130
132
173
221
220
207
216
202
183
176
192
185
115
81
109
132
122
91
77
120
116
88
103
96
80
64
84
84
62
68
74
80
76
66
57
52
49
40
38
66
91
95
91
57
52
52
51
51
49
47
45
44
54
74
80
123
126
130
121
51
42
40
39
38
37
36
35
38
72
127
130
99
104
72
62
42
35
35
33
32
32
31
29
38
104
149
145
63
86
106
122
108
30
31
30
30
29
30
29
53
143
140
136
78
100
133
136
136
101
32
28
27
24
22
34
90
104
108
116
120
133
136
130
120
112
83
35
37
50
66
92
103
110
116
126
133
124
120
111
100
104
110
116
113
123
127
125
129
130
133
135
124
124
121
124
126
126
125
127
127
131
130
127
123
119
116
119
