P2
# CREATOR: GIMP PNM Filter Version 1.1
16 15
255
255
255
255
255
255
255
255
255
255
255
255
255
255
255
255
255
255
255
255
255
255
255
255
251
238
253
255
254
255
255
255
255
255
255
255
255
248
237
240
147
97
108
118
103
213
253
255
255
255
255
255
242
169
104
98
100
85
58
51
64
76
154
240
255
255
255
252
154
96
73
75
79
75
60
42
37
60
63
159
244
251
177
138
113
63
52
55
64
73
76
55
72
70
56
59
177
119
88
87
85
66
83
49
71
78
61
63
48
61
75
72
118
65
73
79
60
51
44
42
42
57
53
34
35
35
58
53
49
70
53
45
42
51
52
57
48
33
43
36
26
32
34
53
44
166
94
124
146
71
45
69
74
42
34
52
27
32
34
24
53
163
108
81
117
98
65
102
80
61
51
67
54
37
56
127
182
36
59
77
102
75
81
93
105
88
96
105
110
166
184
173
183
129
157
175
127
50
73
144
144
153
147
143
144
96
100
123
143
146
146
165
164
143
134
146
152
159
157
155
157
159
158
156
150
181
186
157
145
166
177
168
175
169
167
170
163
163
164
153
137
