P2
# CREATOR: GIMP PNM Filter Version 1.1
16 15
255
255
255
255
255
254
244
232
176
228
217
245
255
255
255
255
255
255
255
255
255
209
130
102
92
76
101
120
230
255
255
255
255
255
255
255
247
90
60
69
67
70
71
70
163
255
255
255
255
255
255
248
181
57
49
41
55
63
62
77
86
246
255
255
255
255
250
107
80
84
63
71
78
32
72
52
64
212
252
255
255
254
150
64
55
60
61
55
62
96
58
50
59
58
154
253
255
255
104
46
44
57
43
74
78
90
96
58
57
70
61
214
254
247
153
38
25
75
50
40
58
52
46
70
40
53
113
69
240
240
133
42
52
76
55
63
128
41
58
55
87
37
69
74
140
136
54
51
67
81
63
118
67
37
89
73
47
70
65
92
121
209
84
33
68
62
65
43
76
56
45
38
98
55
35
201
243
255
228
54
71
31
59
88
80
49
36
112
212
105
59
205
255
255
254
240
249
183
208
204
125
114
119
240
252
250
229
255
255
255
255
255
255
255
255
255
163
255
255
255
255
254
255
254
255
255
255
255
255
255
250
210
152
246
255
255
255
255
255
255
255
