P2
# CREATOR: GIMP PNM Filter Version 1.1
16 15
255
255
255
255
255
255
255
255
251
255
255
255
255
255
255
255
255
255
255
255
255
242
192
169
139
137
168
232
251
255
255
255
255
255
255
255
253
169
144
148
172
157
130
139
152
239
255
255
255
255
255
255
242
202
171
135
158
120
142
139
140
177
241
255
255
255
255
253
189
168
156
134
129
143
131
135
183
140
194
255
255
255
253
202
178
176
145
117
127
135
133
153
134
145
141
225
255
255
242
151
129
158
153
120
99
111
139
149
168
140
129
187
255
243
194
191
215
147
209
155
68
77
114
189
118
182
188
199
255
241
189
180
176
154
164
138
112
64
147
161
187
206
187
170
223
254
237
195
149
152
127
110
124
91
106
78
116
142
216
242
250
254
245
210
228
219
162
138
142
54
114
179
169
160
190
244
255
255
255
251
242
212
205
236
200
152
215
229
224
213
225
230
255
255
255
255
254
249
251
255
231
156
237
251
255
253
255
254
255
255
255
255
255
255
255
255
224
115
225
255
255
255
254
254
255
255
255
255
255
255
255
255
247
226
238
255
255
247
232
230
237
