P2
# CREATOR: GIMP PNM Filter Version 1.1
16 15
255
250
249
252
237
158
163
118
130
140
150
168
170
232
250
251
250
249
250
243
169
146
149
139
125
142
168
193
137
166
204
223
242
249
250
225
182
139
109
108
102
104
149
135
132
124
157
213
212
249
243
192
156
164
116
89
90
102
136
114
138
160
143
182
211
241
196
174
132
144
112
115
104
115
128
125
129
174
158
131
178
228
180
122
112
106
113
120
123
92
104
104
125
155
161
168
165
210
159
98
87
81
88
111
92
82
89
102
91
99
114
146
142
121
103
83
77
69
60
73
83
87
96
80
77
63
87
110
111
85
80
76
71
50
48
55
73
78
76
41
69
67
53
67
82
122
153
89
74
57
66
65
64
61
49
73
67
73
66
90
97
137
159
158
131
54
84
92
41
29
103
150
156
145
128
105
71
195
185
181
158
156
153
150
150
77
148
207
214
198
166
135
113
196
203
208
213
217
206
180
142
89
107
133
132
131
131
123
111
126
90
77
77
66
56
50
52
65
77
85
81
90
91
88
84
53
56
46
48
53
57
58
52
57
56
60
61
59
58
57
57
