P2
# CREATOR: GIMP PNM Filter Version 1.1
16 15
255
165
187
161
165
167
150
158
176
180
155
139
136
134
112
84
69
189
179
167
192
186
164
179
191
176
148
151
145
146
134
115
89
205
201
203
202
198
190
188
194
196
191
160
149
134
126
117
99
226
222
219
215
211
210
199
199
199
184
167
148
135
125
116
111
229
223
223
221
214
215
217
214
208
176
103
171
177
173
184
174
221
224
228
232
232
233
233
224
208
144
93
216
213
218
217
210
228
234
232
232
233
231
229
178
54
80
112
233
231
230
228
225
230
234
234
232
234
236
235
168
58
70
58
227
239
238
235
232
220
226
232
235
236
235
232
131
51
62
68
141
246
237
235
231
212
216
220
224
226
227
226
157
77
87
144
133
161
241
234
227
193
202
210
213
217
218
221
219
217
228
220
199
112
210
218
219
60
65
70
71
71
74
83
91
93
90
88
89
90
98
98
101
57
61
65
71
78
82
90
90
93
101
104
109
108
108
106
101
47
54
59
63
67
71
77
81
87
89
92
94
98
99
96
90
43
47
53
60
61
65
68
71
74
79
76
80
84
83
85
81
