P2
# CREATOR: GIMP PNM Filter Version 1.1
16 15
255
255
255
255
255
253
252
238
201
201
196
244
249
254
255
255
255
255
255
255
255
243
203
172
154
143
151
206
224
253
255
255
255
255
255
255
255
254
198
152
146
127
129
164
210
237
255
255
255
255
255
255
189
196
160
123
104
133
116
152
246
239
242
255
255
255
255
240
223
136
123
112
122
113
120
127
144
166
254
255
255
255
255
255
185
109
101
81
67
86
91
115
115
189
223
250
255
255
248
205
151
125
92
104
101
113
109
114
138
135
190
248
255
255
245
181
141
132
115
98
104
94
112
124
115
119
155
237
255
255
229
120
119
107
85
77
59
107
98
89
115
124
127
193
253
255
240
144
84
70
80
79
76
72
76
81
105
108
114
174
252
255
213
101
127
171
204
190
52
112
128
141
118
126
126
141
236
249
194
227
246
253
255
252
115
251
248
247
245
246
245
230
250
255
255
255
255
255
255
253
125
255
255
255
255
255
255
255
255
255
255
255
255
255
255
253
116
255
255
255
255
255
255
255
255
255
255
255
255
255
255
251
113
255
255
255
255
255
255
255
255
