P2
# CREATOR: GIMP PNM Filter Version 1.1
16 15
255
192
198
206
210
215
220
222
224
224
223
218
216
220
213
209
206
199
205
212
217
222
225
229
234
205
152
135
132
152
212
218
212
204
212
218
223
227
232
234
173
120
94
97
109
113
129
200
221
211
218
225
229
234
243
179
102
83
86
88
93
109
110
139
224
217
222
228
234
240
243
140
71
72
73
61
73
86
110
120
194
220
227
232
229
211
203
111
53
60
50
59
37
86
87
90
170
223
229
223
134
110
128
86
47
55
44
71
67
79
75
98
143
186
221
120
58
78
92
67
50
50
55
46
49
59
68
80
127
129
102
48
48
51
64
61
51
51
49
47
48
53
55
70
124
122
89
77
63
43
53
95
61
38
40
43
43
48
53
101
139
173
143
139
156
166
146
173
149
70
43
41
45
53
115
156
155
143
138
137
149
162
185
204
205
202
150
92
127
145
149
145
146
147
119
159
149
160
149
126
121
124
106
114
167
180
189
183
179
188
194
184
113
73
66
60
60
58
57
57
58
89
185
191
184
182
190
197
204
193
175
161
146
143
144
165
188
213
194
190
191
