P2
# CREATOR: GIMP PNM Filter Version 1.1
16 15
255
225
226
227
228
230
227
227
227
226
228
235
241
243
246
230
216
224
226
226
227
228
227
220
222
226
229
230
235
238
235
225
241
220
221
223
225
224
213
182
189
192
203
213
230
233
235
239
242
216
217
200
202
196
181
170
141
157
147
167
189
193
139
140
217
187
146
74
128
168
127
131
135
165
146
143
163
161
132
110
102
116
92
81
139
127
108
112
123
117
117
120
144
163
153
124
133
92
86
123
152
143
98
83
86
93
118
95
75
128
149
124
122
80
60
124
152
136
118
100
135
136
87
77
99
77
85
71
79
62
52
70
115
120
97
64
51
64
68
77
81
56
62
63
58
94
62
43
57
29
9
24
64
41
33
46
63
45
30
32
23
89
87
107
132
147
154
166
155
127
192
187
174
171
154
141
161
151
159
163
163
156
138
132
112
96
119
111
106
105
103
106
125
142
152
149
148
144
140
133
119
98
87
76
83
115
135
139
134
123
132
134
130
133
138
134
132
134
135
135
135
132
133
133
132
137
140
142
143
144
146
148
148
144
144
144
142
140
139
135
135
