P2
# CREATOR: GIMP PNM Filter Version 1.1
16 15
255
255
255
255
255
255
255
255
249
245
255
255
255
255
255
255
255
255
255
255
255
255
254
248
207
200
244
255
255
255
255
255
255
255
255
255
255
255
253
192
112
105
190
253
255
255
255
255
255
255
255
255
255
255
246
153
83
108
190
248
255
255
255
255
255
255
255
255
255
251
196
113
93
78
102
240
255
255
255
255
255
255
255
255
254
233
146
94
87
77
90
189
255
255
255
255
255
255
255
255
255
197
104
79
71
66
64
112
189
243
254
255
255
255
255
255
224
130
81
56
57
73
69
69
120
241
255
255
255
255
255
230
168
114
73
56
51
52
75
97
149
164
237
255
255
255
253
247
189
75
46
50
46
45
64
71
114
211
248
255
255
253
225
156
106
71
73
70
69
79
73
62
88
109
198
252
255
247
185
156
111
57
58
64
72
69
63
58
63
90
161
225
251
244
185
158
116
91
83
90
70
65
92
90
98
76
124
177
237
255
247
238
172
129
118
139
113
114
177
188
200
178
214
232
247
255
254
250
229
224
222
222
219
220
232
236
239
244
252
255
255
